<?xml version="1.0" standalone="no"?>
<!DOCTYPE svg PUBLIC "-//W3C//DTD SVG 20010904//EN"
 "http://www.w3.org/TR/2001/REC-SVG-20010904/DTD/svg10.dtd">
<svg version="1.0" xmlns="http://www.w3.org/2000/svg"
 width="770.000000pt" height="770.000000pt" viewBox="0 0 770.000000 770.000000"
 preserveAspectRatio="xMidYMid meet">
<metadata>
Created by potrace 1.11, written by Peter Selinger 2001-2013
</metadata>
<g transform="translate(0.000000,770.000000) scale(0.100000,-0.100000)"
fill="#000000" stroke="none">
<path d="M3815 7590 c-71 -29 -93 -125 -40 -180 91 -95 232 0 185 124 -18 49
-93 78 -145 56z"/>
<path d="M3480 7553 c-109 -18 -457 -194 -447 -227 6 -20 87 -55 145 -62 50
-6 178 6 237 23 37 10 2 -14 -39 -27 l-40 -13 33 -29 c33 -29 36 -30 110 -24
74 5 75 5 42 -10 l-33 -15 48 -31 c41 -26 54 -29 94 -24 41 5 43 4 26 -9 -18
-14 -10 -15 82 -15 112 0 116 3 83 56 -15 24 -28 33 -62 38 -106 17 -139 68
-139 213 0 114 -10 137 -68 153 -20 5 -39 9 -42 9 -3 -1 -16 -4 -30 -6z"/>
<path d="M4169 7552 c-15 -2 -37 -14 -50 -28 -22 -23 -24 -35 -25 -128 -3
-148 -35 -196 -142 -212 -37 -6 -45 -12 -62 -45 -11 -21 -20 -41 -20 -44 0 -3
46 -5 103 -4 56 0 96 3 90 6 -28 11 -11 21 27 16 32 -5 48 0 80 21 22 14 45
26 52 27 7 0 -2 7 -19 15 -18 8 -33 17 -33 20 0 4 30 3 66 -1 61 -6 68 -5 106
21 l41 29 -47 14 c-25 8 -46 19 -46 24 0 5 6 7 14 4 37 -14 184 -29 233 -23
55 6 125 36 139 57 10 16 -20 39 -140 106 -155 88 -294 135 -367 125z"/>
<path d="M3782 7355 c1 -10 15 -27 30 -38 35 -26 91 -17 114 19 22 32 13 39
-30 24 -20 -6 -46 -9 -58 -5 -13 4 -31 9 -41 12 -14 4 -18 0 -15 -12z"/>
<path d="M2865 7284 c-145 -41 -365 -88 -498 -105 -53 -8 -96 -18 -94 -23 8
-24 77 -67 132 -81 103 -26 231 -16 430 35 149 38 351 111 334 120 -8 4 -36
11 -63 15 -38 5 -58 15 -84 41 -19 19 -35 33 -35 33 -1 -1 -56 -17 -122 -35z"/>
<path d="M4707 7300 c-6 -23 -78 -59 -119 -60 -68 0 -59 -14 33 -47 222 -81
499 -140 609 -130 68 6 149 39 184 76 l26 27 -123 17 c-140 20 -394 75 -517
112 -46 14 -84 25 -86 25 -1 0 -4 -9 -7 -20z"/>
<path d="M3822 7278 c-19 -19 -14 -62 12 -108 l23 -41 22 34 c26 42 29 112 5
121 -25 9 -49 7 -62 -6z"/>
<path d="M3180 7204 c-114 -52 -339 -121 -494 -152 l-139 -28 34 -16 c54 -25
181 -42 272 -35 89 6 216 40 312 82 70 31 205 106 205 114 0 12 -69 60 -91 65
-14 2 -55 -10 -99 -30z"/>
<path d="M4415 7228 c-11 -6 -33 -22 -48 -34 l-28 -23 43 -27 c137 -87 347
-161 483 -171 84 -6 211 14 262 41 26 13 25 14 -43 25 -174 30 -431 107 -564
170 -72 34 -77 35 -105 19z"/>
<path d="M3295 7094 c-105 -55 -277 -120 -370 -139 -28 -6 -29 -8 -11 -20 22
-17 104 -35 154 -35 101 1 223 45 411 151 l74 41 -44 28 c-72 45 -81 44 -214
-26z"/>
<path d="M4257 7145 c-20 -7 -49 -20 -63 -30 -22 -14 -24 -19 -13 -30 22 -21
240 -133 305 -156 84 -30 231 -32 293 -3 l45 20 -89 22 c-112 29 -213 69 -341
136 -97 52 -102 53 -137 41z"/>
<path d="M3540 7063 c-12 -9 -87 -48 -167 -88 -135 -68 -142 -73 -112 -79 57
-11 70 -7 117 42 78 80 219 132 316 117 27 -5 38 -4 31 3 -5 5 -44 12 -86 15
-60 4 -82 2 -99 -10z"/>
<path d="M4055 7073 c-33 -2 -64 -9 -70 -14 -7 -7 7 -8 41 -4 101 14 241 -40
308 -117 42 -49 55 -54 116 -42 30 6 21 13 -141 95 -95 49 -178 88 -183 87 -6
-1 -38 -3 -71 -5z"/>
<path d="M3776 7057 c-16 -12 -14 -15 22 -44 39 -32 40 -32 46 -10 13 50 8 67
-22 67 -16 0 -36 -6 -46 -13z"/>
<path d="M3870 7033 c0 -61 11 -66 53 -26 21 19 37 36 35 38 -14 11 -50 25
-67 25 -18 0 -21 -6 -21 -37z"/>
<path d="M3601 7029 c-161 -27 -253 -125 -255 -269 0 -82 29 -146 87 -194 96
-77 182 -103 392 -116 83 -5 164 -13 181 -18 100 -30 159 -99 139 -163 -8 -23
-90 -79 -117 -79 -33 0 -17 -15 52 -48 76 -36 85 -35 131 15 48 51 62 90 56
159 -8 100 -51 160 -152 212 -65 33 -112 42 -280 57 -182 16 -260 38 -312 91
-29 28 -33 38 -33 86 0 104 64 169 145 147 58 -16 142 -7 167 19 28 27 19 46
-39 82 -49 32 -70 34 -162 19z m109 -29 c0 -5 -7 -10 -16 -10 -8 0 -12 5 -9
10 3 6 10 10 16 10 5 0 9 -4 9 -10z"/>
<path d="M3957 7011 c-58 -38 -67 -56 -38 -84 18 -19 32 -22 89 -21 37 0 83 2
102 4 26 3 45 -3 67 -20 38 -27 53 -65 53 -130 0 -74 -45 -117 -158 -151 l-42
-12 76 -33 c42 -19 82 -38 89 -44 17 -14 96 40 134 92 71 96 58 252 -26 329
-61 56 -127 83 -236 94 -57 6 -66 4 -110 -24z m83 -11 c0 -5 -7 -10 -15 -10
-8 0 -15 5 -15 10 0 6 7 10 15 10 8 0 15 -4 15 -10z"/>
<path d="M3832 6912 c-22 -54 -23 -67 -16 -175 l7 -117 38 0 39 0 0 128 c0
110 -3 133 -23 175 l-22 48 -23 -59z"/>
<path d="M3484 6424 c-36 -62 -45 -154 -19 -205 56 -110 156 -155 375 -168
176 -10 219 -31 236 -119 8 -41 -14 -77 -60 -93 l-36 -13 52 -28 c28 -15 56
-28 63 -28 17 0 62 51 74 83 25 66 6 156 -45 216 -54 62 -107 81 -272 96 -156
14 -236 41 -268 91 -31 47 3 117 75 154 24 12 22 13 -40 30 -35 10 -74 21 -86
25 -18 6 -26 -1 -49 -41z"/>
<path d="M3820 6305 l0 -115 35 0 35 0 1 98 c0 53 2 105 4 115 3 14 -4 17 -36
17 l-39 0 0 -115z"/>
<path d="M2252 6355 c-18 -40 -26 -105 -13 -105 6 0 11 12 11 28 0 15 4 43 10
61 12 42 7 50 -8 16z"/>
<path d="M3578 6048 c-41 -63 -49 -151 -20 -207 39 -79 140 -121 284 -121 85
0 149 -22 163 -57 30 -74 18 -118 -41 -149 -35 -19 -44 -34 -21 -34 6 0 25 -7
40 -15 25 -13 31 -13 53 1 66 44 88 149 46 229 -40 78 -89 104 -231 117 -173
16 -228 53 -202 137 6 22 23 49 36 59 l25 20 -42 15 c-24 8 -50 18 -59 21 -11
5 -21 -1 -31 -16z"/>
<path d="M3820 5930 l0 -100 35 0 35 0 0 100 0 100 -35 0 -35 0 0 -100z"/>
<path d="M2092 5843 c-24 -42 -5 -152 36 -211 11 -15 22 -34 25 -42 4 -10 6
-8 6 7 1 25 -24 127 -36 146 -4 6 -10 37 -13 67 -5 50 -6 53 -18 33z"/>
<path d="M5568 5675 c3 -42 -3 -117 -11 -168 -33 -190 -37 -225 -37 -295 0
-65 3 -77 37 -129 58 -90 148 -287 186 -408 159 -494 122 -1018 -102 -1480
-106 -217 -225 -379 -415 -562 -108 -105 -114 -113 -87 -113 38 0 150 88 281
219 290 291 487 636 586 1027 50 197 67 340 67 554 -1 461 -125 877 -372 1245
-44 66 -93 135 -108 153 l-28 33 3 -76z"/>
<path d="M3634 5688 c-10 -19 -18 -55 -18 -84 -1 -104 84 -174 232 -193 86
-11 118 -29 127 -71 9 -42 -9 -82 -47 -105 l-31 -18 27 -14 c24 -13 30 -12 53
2 26 18 63 87 63 120 0 11 -9 39 -19 62 -23 49 -70 77 -146 88 -78 11 -150 49
-170 91 -16 35 -16 37 7 84 l24 48 -25 5 c-15 3 -34 9 -43 12 -12 5 -21 -2
-34 -27z"/>
<path d="M3830 5611 l0 -101 25 0 c25 0 25 1 25 90 0 50 0 93 0 98 0 4 -11 8
-25 10 l-25 3 0 -100z"/>
<path d="M1991 5549 c-175 -264 -292 -561 -346 -879 -22 -131 -31 -439 -16
-581 54 -521 271 -987 626 -1345 61 -61 142 -136 180 -166 64 -51 75 -56 128
-59 31 -2 57 -2 56 1 0 3 -34 34 -75 69 -329 281 -572 735 -639 1192 -20 139
-20 418 0 558 39 266 146 562 275 760 l42 65 -22 85 c-27 102 -44 156 -75 236
-13 33 -26 83 -30 110 -11 89 -16 87 -104 -46z"/>
<path d="M5076 5400 c-10 -19 -25 -43 -34 -52 -22 -26 5 -24 36 2 18 14 23 28
20 52 l-3 33 -19 -35z"/>
<path d="M3694 5374 c-27 -64 4 -147 68 -180 17 -9 52 -22 78 -30 69 -21 100
-55 100 -114 0 -50 -28 -100 -56 -100 -11 0 -14 19 -14 90 0 73 -3 90 -15 90
-12 0 -15 -17 -15 -90 0 -49 -4 -90 -9 -90 -5 0 -19 12 -30 26 -29 37 -29 112
0 143 18 19 19 25 8 32 -8 5 -17 9 -21 9 -15 0 -38 -60 -38 -100 0 -57 23 -96
65 -111 34 -13 35 -14 37 -74 l2 -60 3 58 c4 57 5 58 44 74 47 18 69 55 69
115 0 70 -28 103 -123 147 -60 28 -86 45 -95 65 -17 39 -15 70 8 99 l20 25
-23 6 c-39 10 -48 7 -63 -30z"/>
<path d="M3830 5363 c0 -16 3 -52 6 -80 6 -43 10 -53 25 -53 17 0 19 9 19 80
0 79 0 80 -25 80 -21 0 -25 -5 -25 -27z"/>
<path d="M2354 5313 c8 -24 34 -70 56 -104 39 -56 41 -62 26 -78 -9 -10 -16
-25 -16 -34 0 -9 -9 -21 -21 -27 -20 -11 -20 -12 -2 -32 10 -11 70 -54 133
-95 63 -42 138 -94 165 -118 38 -32 61 -43 95 -47 49 -5 102 -29 225 -100 44
-25 91 -50 105 -53 24 -7 24 -7 9 16 -17 25 -86 85 -210 182 -42 34 -130 86
-205 123 -99 48 -142 75 -173 109 -22 24 -41 51 -41 58 0 8 -9 22 -20 32 -11
10 -20 22 -20 27 0 5 -16 30 -35 55 -19 25 -35 51 -35 57 -1 6 -12 25 -26 41
l-24 30 14 -42z"/>
<path d="M2172 5018 c-182 -330 -263 -666 -249 -1033 16 -391 141 -752 372
-1072 71 -98 251 -288 337 -357 41 -33 52 -37 92 -34 l46 3 -80 69 c-278 236
-489 599 -570 981 -28 130 -38 420 -20 561 28 231 120 499 232 682 l20 32 -35
39 c-35 39 -45 63 -67 164 -7 31 -16 57 -20 57 -4 0 -30 -42 -58 -92z"/>
<path d="M5516 4999 c-7 -76 -31 -145 -59 -168 -10 -7 -17 -19 -17 -26 0 -6
-9 -20 -19 -29 -19 -17 -18 -20 25 -110 57 -120 107 -275 136 -418 20 -97 23
-144 23 -328 0 -184 -3 -231 -23 -328 -65 -324 -208 -609 -431 -859 -51 -57
-95 -103 -99 -103 -4 -1 -34 -25 -67 -55 l-60 -55 62 0 c60 0 64 2 125 52 35
28 98 88 142 132 578 592 718 1492 346 2225 -80 157 -76 154 -84 70z"/>
<path d="M2362 4797 c-83 -134 -167 -350 -202 -519 -110 -536 28 -1068 386
-1490 62 -72 239 -238 255 -238 3 0 10 15 16 34 10 34 10 35 -64 107 -195 192
-351 464 -418 729 -75 291 -56 645 50 925 31 84 107 235 152 303 20 29 34 54
32 55 -2 2 -24 19 -49 38 -25 19 -66 47 -92 62 l-46 27 -20 -33z"/>
<path d="M5345 4724 c-11 -8 -45 -29 -75 -45 -103 -56 -100 -43 -37 -166 62
-121 117 -276 144 -403 28 -132 25 -511 -4 -635 -91 -376 -291 -693 -575 -909
-21 -16 -38 -32 -38 -37 0 -5 23 -9 51 -9 48 0 57 4 121 56 558 451 780 1199
557 1884 -27 83 -112 281 -121 280 -2 0 -12 -8 -23 -16z"/>
<path d="M3124 4519 c-3 -6 6 -22 22 -35 l29 -24 -23 -19 c-23 -20 -23 -20 -2
-31 16 -9 20 -21 20 -63 0 -29 7 -74 15 -102 9 -27 17 -59 19 -70 2 -12 13
-50 24 -85 11 -36 20 -94 21 -129 0 -35 2 -66 5 -68 2 -2 17 8 34 21 32 28 46
62 30 72 -6 4 4 13 22 20 21 9 30 19 27 28 -3 8 1 20 8 26 19 16 8 33 -16 27
-24 -6 -24 -3 3 33 13 19 21 42 20 65 -1 20 3 33 8 30 23 -14 16 15 -10 44
-36 39 -37 45 -6 39 15 -3 27 2 35 14 12 20 1 24 -17 6 -9 -9 -15 -3 -28 27
-8 21 -14 49 -11 62 3 16 -2 27 -15 34 -11 6 -24 23 -29 38 -8 23 -18 28 -74
39 -80 15 -102 15 -111 1z"/>
<path d="M3940 4460 c-6 -11 -16 -20 -22 -20 -6 0 -16 -8 -23 -17 -10 -14 -16
-15 -28 -5 -12 10 -15 6 -21 -25 -3 -21 -6 -60 -6 -88 0 -93 -36 -279 -135
-702 -40 -169 -70 -320 -78 -383 -1 -14 -8 -24 -15 -23 -6 2 -12 -6 -12 -17 0
-22 -40 -245 -58 -320 -5 -22 -4 -24 11 -11 15 12 17 11 17 -11 0 -14 -7 -65
-16 -114 -8 -49 -17 -102 -20 -119 -2 -16 -6 -42 -10 -57 -5 -26 -4 -28 29
-28 l35 0 10 63 c6 34 11 71 11 82 2 102 50 477 97 757 19 114 34 229 34 256
0 26 6 56 14 67 7 11 17 40 20 65 9 59 26 110 35 110 12 0 41 -102 47 -171 4
-35 10 -68 14 -74 14 -18 32 -187 41 -385 5 -107 13 -231 18 -275 5 -44 10
-173 10 -287 l1 -208 70 0 70 0 -5 73 c-3 39 -12 144 -19 232 -25 274 -76
1039 -76 1130 0 53 3 61 22 70 31 13 36 45 9 45 -12 0 -21 5 -21 11 0 6 7 9
15 5 19 -7 16 37 -4 44 -15 7 -22 93 -10 128 6 16 16 22 39 22 25 0 30 3 26
18 -3 9 -8 31 -12 47 -4 17 -13 38 -21 47 -8 9 -15 33 -16 52 -1 32 -4 36 -29
36 -17 0 -31 -7 -38 -20z"/>
<path d="M4473 4356 c-23 -11 -32 -46 -13 -46 6 0 15 -10 20 -22 l9 -23 0 23
c1 12 8 25 16 28 18 7 19 16 3 35 -10 12 -18 13 -35 5z"/>
<path d="M3063 3255 c-47 -121 -78 -289 -65 -351 9 -42 9 -45 -9 -41 -20 5
-19 1 13 -45 19 -28 23 -43 10 -34 -18 11 -51 -26 -67 -75 -11 -33 -15 -68
-12 -98 4 -38 2 -50 -16 -68 l-20 -23 52 0 53 0 -7 70 c-5 52 -4 70 5 70 7 0
10 8 7 20 -3 13 1 24 14 31 14 7 18 16 13 35 -4 14 -1 31 6 39 10 12 10 21 1
41 -14 32 -14 37 3 31 17 -7 21 6 37 123 15 110 1 324 -18 275z"/>
<path d="M5500 2389 c-13 -6 -27 -13 -30 -17 -3 -4 -18 -14 -34 -22 -49 -25
-100 -106 -102 -161 -1 -25 -8 -57 -15 -70 -17 -32 -17 -271 0 -277 9 -3 9 -8
-1 -19 -17 -20 -12 -210 6 -238 7 -11 11 -34 9 -51 -5 -33 40 -144 58 -144 6
0 24 -13 40 -30 30 -29 101 -56 119 -45 13 8 13 62 0 70 -7 4 -7 12 0 25 15
28 12 59 -9 94 -11 17 -25 51 -32 76 -7 25 -17 50 -22 57 -5 7 -5 18 -1 24 12
21 16 347 4 369 -8 16 -7 26 5 42 8 13 15 36 15 53 0 16 12 48 25 70 26 41 33
89 15 100 -7 4 -6 13 1 26 14 27 8 73 -11 76 -8 1 -26 -3 -40 -8z"/>
<path d="M5621 2387 c-14 -14 -15 -64 -1 -72 7 -4 7 -12 0 -25 -13 -23 -13
-77 -1 -85 22 -13 58 -93 50 -108 -5 -9 -5 -26 1 -41 8 -21 16 -26 43 -26 18
0 38 5 45 12 9 9 15 9 24 0 14 -14 47 -15 67 -3 17 11 6 85 -17 107 -12 12
-13 18 -3 24 34 20 -49 180 -93 180 -9 0 -16 4 -16 9 0 8 -24 19 -71 34 -9 3
-22 0 -28 -6z"/>
<path d="M4277 2383 c-14 -23 -18 -75 -7 -88 6 -8 9 -19 6 -24 -4 -5 -6 -142
-6 -303 0 -161 1 -371 1 -465 l-1 -173 33 0 c18 0 38 5 44 11 8 8 13 8 17 0 8
-13 62 -15 70 -3 3 5 5 49 5 98 0 49 1 100 1 114 3 39 3 57 2 340 0 146 1 313
4 373 l4 107 -25 10 c-17 7 -33 7 -44 0 -10 -5 -20 -8 -22 -6 -10 8 -78 16
-82 9z"/>
<path d="M1951 2123 c0 -165 3 -261 10 -269 7 -9 7 -19 0 -33 -14 -25 -15
-308 -1 -316 7 -4 7 -12 0 -25 -5 -10 -10 -48 -10 -84 l0 -65 88 2 87 2 5 103
c3 57 2 106 -1 110 -3 4 -2 68 2 142 3 74 4 139 2 143 -7 12 -4 517 3 528 9
16 -28 23 -57 12 -17 -7 -31 -7 -35 -2 -3 5 -25 9 -49 9 l-44 0 0 -257z"/>
<path d="M2301 2174 c0 -113 -3 -209 -6 -212 -4 -4 -28 -6 -55 -5 l-48 2 0
-89 0 -89 49 1 c27 1 51 -1 54 -4 3 -3 6 -105 6 -226 l0 -221 89 0 90 0 -1
167 c0 92 0 172 1 177 1 14 -2 568 -3 640 l-2 60 -87 2 -88 3 1 -206z"/>
<path d="M2628 2303 c-3 -43 -2 -85 2 -93 4 -8 4 -71 -1 -140 -6 -99 -5 -131
6 -152 8 -16 9 -30 4 -33 -5 -4 -9 -125 -8 -281 l0 -274 87 2 87 3 2 523 2
522 -27 0 c-16 0 -33 -5 -40 -12 -9 -9 -15 -9 -24 0 -7 7 -29 12 -49 12 l-37
0 -4 -77z"/>
<path d="M2871 2290 l0 -89 97 2 97 2 2 86 2 86 -99 1 -99 1 0 -89z"/>
<path d="M3173 2365 c-3 -9 -2 -41 1 -73 4 -31 6 -64 6 -72 -11 -213 -11 -252
0 -265 10 -12 10 -21 0 -45 -9 -21 -11 -76 -6 -197 3 -92 5 -216 5 -274 l0
-107 80 0 c44 -1 83 3 86 8 10 16 11 470 1 480 -6 6 -5 14 3 23 8 10 10 87 9
273 l-3 259 -88 2 c-71 2 -89 0 -94 -12z"/>
<path d="M3676 2372 c-10 -16 -6 -852 5 -879 7 -18 6 -30 -1 -37 -5 -5 -10
-36 -10 -67 l0 -58 93 2 92 2 -2 80 c-2 44 -2 89 -2 100 1 16 1 252 0 325 0 8
2 101 5 207 4 136 2 198 -6 213 -9 16 -9 25 -1 33 6 6 11 26 11 44 0 40 -18
50 -66 35 -20 -6 -36 -6 -40 -1 -6 11 -71 12 -78 1z"/>
<path d="M3917 2373 c-12 -11 -7 -71 6 -76 10 -4 10 -7 0 -18 -23 -24 -16 -67
14 -81 63 -31 84 -133 46 -220 -15 -33 -28 -47 -45 -50 -27 -4 -38 -49 -17
-74 9 -11 9 -17 0 -28 -7 -8 -11 -27 -9 -43 3 -26 6 -28 55 -31 72 -4 143 26
143 62 0 18 6 25 22 28 35 5 53 83 49 213 0 11 -1 51 -1 90 -2 75 -20 132 -45
142 -9 3 -21 17 -26 30 -12 31 -81 62 -140 63 -25 0 -49 -3 -52 -7z"/>
<path d="M4667 2373 c-8 -7 12 -83 30 -117 10 -17 16 -37 15 -44 -4 -19 47
-204 64 -229 8 -12 14 -34 14 -48 0 -42 39 -187 61 -223 10 -18 19 -47 19 -64
0 -35 49 -198 60 -198 4 0 6 -20 6 -43 -1 -67 12 -76 105 -75 87 0 93 6 64 62
-8 15 -12 32 -9 37 3 5 -4 33 -15 63 -11 30 -27 82 -36 116 -9 34 -23 72 -31
85 -8 12 -11 24 -8 27 6 6 -20 109 -56 223 -10 33 -28 98 -40 145 -12 47 -28
99 -35 115 -7 17 -18 57 -25 90 -7 33 -16 65 -21 71 -9 11 -152 17 -162 7z"/>
<path d="M5024 2368 c-12 -19 -14 -129 -3 -150 6 -10 7 -23 4 -28 -3 -5 -6
-69 -7 -142 -2 -120 1 -142 26 -220 15 -48 31 -90 37 -93 5 -4 7 -10 4 -15 -6
-10 81 -343 96 -370 5 -9 9 50 9 137 0 83 -4 154 -9 157 -5 4 -5 22 0 43 11
50 12 270 0 277 -5 4 -5 22 0 43 12 55 11 237 -2 250 -8 8 -8 13 0 17 6 4 11
27 11 52 l0 45 -47 -1 c-27 -1 -62 2 -79 5 -22 5 -34 3 -40 -7z"/>
<path d="M4591 2189 c-1 -131 2 -185 11 -190 9 -6 9 -11 0 -21 -8 -10 -11
-105 -11 -331 l0 -316 84 0 84 1 0 241 c0 190 -3 253 -15 297 -9 30 -20 59
-25 64 -5 6 -9 24 -9 42 0 35 -24 110 -42 132 -7 8 -13 29 -14 46 -1 36 -42
197 -54 210 -4 4 -9 -74 -9 -175z"/>
<path d="M2865 1931 c-3 -10 -1 -29 4 -43 5 -15 6 -30 0 -39 -5 -8 -9 -26 -9
-41 l0 -28 95 1 c87 1 95 3 95 21 0 11 -5 28 -10 38 -7 13 -7 21 0 25 5 3 10
24 10 45 l0 39 -90 0 c-77 0 -90 -3 -95 -18z"/>
<path d="M5603 1903 c-14 -10 -14 -152 0 -170 5 -7 22 -13 38 -13 25 0 29 -4
29 -29 0 -16 6 -32 13 -34 9 -4 9 -7 0 -14 -7 -5 -15 -28 -19 -51 -4 -24 -17
-59 -30 -78 -25 -36 -32 -88 -14 -99 7 -4 7 -12 0 -25 -14 -27 -13 -80 3 -80
32 0 87 22 87 35 0 8 6 12 14 9 18 -7 90 82 106 132 7 19 9 50 6 69 -5 23 -3
34 6 37 10 4 13 43 13 159 l0 154 -55 -2 c-82 -3 -81 -3 -135 2 -27 3 -55 2
-62 -2z"/>
<path d="M3412 1419 l0 -88 92 2 91 2 3 33 c2 18 -1 39 -7 45 -6 8 -6 18 -1
27 6 8 10 27 10 41 l0 26 -94 0 -94 0 0 -88z"/>
<path d="M2865 1470 c-4 -19 -2 -36 5 -45 8 -10 8 -19 1 -34 -6 -11 -11 -29
-11 -40 0 -19 6 -20 110 -20 l110 0 -3 82 -2 82 -102 2 -101 3 -7 -30z"/>
<path d="M2621 886 c-1 -165 3 -267 9 -271 7 -4 7 -12 0 -25 -6 -11 -10 -117
-9 -258 l1 -240 78 0 c43 0 84 4 91 9 16 10 27 195 12 209 -4 5 -5 71 -1 147
4 75 4 141 1 146 -7 12 -4 372 4 464 7 83 -4 96 -61 75 -20 -8 -34 -8 -40 -2
-6 6 -27 10 -48 10 l-37 0 0 -264z"/>
<path d="M2971 944 c0 -114 -3 -209 -6 -212 -3 -3 -27 -6 -53 -7 l-47 0 -2
-92 c-2 -82 0 -93 15 -93 9 0 23 4 30 9 8 5 24 4 38 -3 23 -11 24 -15 25 -126
0 -63 1 -162 2 -220 l2 -105 34 -3 c18 -2 38 1 43 6 6 6 20 6 37 -1 58 -22 61
-14 61 170 1 300 -1 756 -3 818 l-2 60 -87 2 -88 3 1 -206z"/>
<path d="M3470 1125 c1 -11 10 -60 20 -110 11 -49 27 -133 35 -185 8 -52 17
-102 20 -109 3 -8 17 -77 30 -154 13 -76 28 -144 34 -151 6 -7 8 -16 5 -19
-10 -9 47 -291 60 -299 6 -4 41 -7 79 -6 96 1 110 19 86 113 -6 22 -12 49 -14
60 -21 124 -48 252 -56 259 -5 6 -9 27 -9 47 0 51 -38 237 -57 276 -8 18 -12
36 -9 41 12 20 -41 251 -58 254 -6 0 -46 2 -88 2 -72 2 -78 0 -78 -19z"/>
<path d="M3983 1133 c-7 -17 14 -90 33 -118 8 -11 14 -32 14 -48 0 -42 49
-210 65 -223 8 -6 12 -19 9 -30 -7 -27 43 -214 66 -246 11 -15 17 -34 14 -42
-7 -18 45 -198 60 -208 6 -4 9 -25 7 -47 -2 -29 3 -45 18 -60 23 -23 70 -28
88 -10 8 8 13 8 17 0 9 -13 53 -15 60 -2 3 5 0 31 -8 57 -8 27 -28 99 -46 159
-17 61 -37 124 -44 140 -8 17 -19 59 -26 95 -6 36 -22 99 -35 140 -13 41 -36
122 -51 179 -16 57 -34 110 -42 117 -7 8 -11 18 -8 23 6 8 -20 121 -30 130 -3
3 -39 6 -80 7 -59 2 -77 -1 -81 -13z"/>
<path d="M4343 1144 c-16 -7 -18 -160 -3 -169 8 -5 8 -11 1 -19 -6 -8 -11 -68
-10 -147 0 -123 3 -142 30 -219 16 -47 36 -114 44 -150 8 -35 32 -125 52 -199
36 -131 38 -134 46 -96 4 22 6 92 4 155 -2 63 -4 214 -4 335 0 121 0 256 0
300 -1 44 -1 108 -1 143 l-1 63 -48 -1 c-26 -1 -59 1 -73 4 -14 3 -31 3 -37 0z"/>
<path d="M4650 1071 c0 -45 5 -83 10 -86 7 -4 8 -11 1 -18 -12 -15 -15 -158
-10 -552 l4 -320 33 -3 c18 -2 39 2 47 8 9 8 15 8 20 0 7 -11 54 -13 71 -2 10
6 13 193 6 412 0 8 2 73 5 143 2 71 0 134 -5 140 -5 7 -6 37 -1 72 11 87 11
173 -1 180 -7 4 -6 13 1 26 5 11 9 32 7 47 -2 21 -9 28 -31 30 -16 2 -34 -2
-42 -8 -10 -8 -19 -8 -34 -1 -11 6 -33 11 -50 11 l-31 0 0 -79z"/>
<path d="M4893 1064 c2 -80 4 -89 22 -92 29 -6 46 -23 62 -61 18 -42 36 -193
34 -281 -4 -160 -10 -250 -17 -262 -5 -7 -15 -26 -24 -43 -8 -16 -28 -36 -43
-43 -34 -16 -44 -38 -29 -63 7 -11 8 -20 2 -24 -6 -3 -10 -28 -10 -56 0 -47 1
-49 28 -49 68 0 182 54 182 85 0 8 11 25 24 38 51 51 71 182 70 452 -1 209
-33 353 -92 418 -27 30 -93 57 -154 64 l-57 6 2 -89z"/>
<path d="M3904 1126 c-4 -9 -3 -36 0 -59 4 -23 6 -46 6 -52 -10 -63 -9 -229 0
-240 8 -10 9 -19 0 -35 -9 -17 -10 -171 -1 -245 1 -5 -1 -50 -5 -100 -3 -49
-2 -100 3 -113 5 -13 5 -51 -1 -92 -7 -53 -7 -72 3 -84 14 -17 66 -22 75 -7 4
5 18 5 35 -2 48 -18 61 -5 61 62 0 33 -5 63 -10 66 -8 5 -8 11 -1 19 6 7 10
77 10 169 0 123 -4 170 -19 223 -11 37 -23 70 -27 73 -5 3 -9 25 -10 49 -2 24
-12 64 -24 90 -12 26 -23 58 -24 72 -2 29 -52 210 -59 218 -3 3 -8 -3 -12 -12z"/>
<path d="M3408 1105 c-3 -5 -14 -50 -23 -100 -9 -49 -25 -124 -35 -165 -19
-76 -27 -124 -35 -195 -2 -22 -8 -53 -14 -70 -13 -40 -44 -194 -45 -225 -1
-14 -4 -30 -8 -36 -6 -10 -48 -197 -48 -216 0 -12 74 -10 87 3 8 8 13 8 17 0
9 -15 73 -14 82 1 4 6 8 32 9 57 1 25 7 57 12 71 6 14 13 42 17 63 l7 37 58 0
c32 0 60 3 64 6 3 3 1 18 -5 33 -6 14 -12 43 -14 65 -4 46 -19 66 -48 66 -18
0 -21 5 -20 44 1 24 4 48 8 54 22 36 11 226 -15 256 -4 5 -5 21 -2 37 3 15 -2
49 -11 76 -8 26 -19 71 -23 98 -5 28 -11 46 -15 40z"/>
</g>
</svg>
